<svg xmlns="http://www.w3.org/2000/svg" xmlns:xlink="http://www.w3.org/1999/xlink" width="938.191" height="718.578" viewBox="0 0 938.191 718.578"><defs><linearGradient id="a" y1="0.5" x2="1" y2="0.5" gradientUnits="objectBoundingBox"><stop offset="0" stop-color="gray" stop-opacity="0.251"/><stop offset="0.54" stop-color="gray" stop-opacity="0.122"/><stop offset="1" stop-color="gray" stop-opacity="0.102"/></linearGradient><linearGradient id="b" x1="0" y1="0.5" x2="1" y2="0.5" xlink:href="#a"/><linearGradient id="d" x1="0" y1="0.5" x2="1" y2="0.5" xlink:href="#a"/><linearGradient id="e" x1="0" y1="0.5" x2="1" y2="0.5" xlink:href="#a"/><linearGradient id="g" x1="0" y1="0.5" x2="1" y2="0.5" xlink:href="#a"/><linearGradient id="h" x1="0" y1="0.5" x2="1" y2="0.5" xlink:href="#a"/><linearGradient id="m" x1="0" y1="0.5" x2="1" y2="0.5" xlink:href="#a"/><linearGradient id="n" x1="0" y1="0.501" x2="1" y2="0.501" xlink:href="#a"/><linearGradient id="o" x1="0" y1="0.5" x2="1" y2="0.5" xlink:href="#a"/><linearGradient id="q" x1="0" y1="0.5" x2="1" y2="0.5" xlink:href="#a"/><linearGradient id="r" x1="0" y1="0.5" x2="1" y2="0.5" xlink:href="#a"/><linearGradient id="s" x1="0" y1="0.5" x2="0.999" y2="0.5" xlink:href="#a"/><linearGradient id="t" x1="0" y1="0.5" x2="0.999" y2="0.5" xlink:href="#a"/><linearGradient id="u" x1="0.5" y1="1" x2="0.5" y2="0" xlink:href="#a"/><linearGradient id="v" x1="0.5" y1="1" x2="0.5" y2="0" xlink:href="#a"/></defs><path d="M919.284,736.8H852V698.89h67.284Zm-64.441-2.843h61.6V701.733h-61.6Z" transform="translate(-144.092 -103.755)" fill="#3498db" opacity="0.2"/><path d="M990.284,734.8H923V696.89h67.284Zm-64.441-2.843h61.6V699.733h-61.6Z" transform="translate(-147.808 -103.65)" fill="#3498db" opacity="0.2"/><path d="M1061.284,734.8H994V696.89h67.284Zm-64.441-2.843h61.6V699.733h-61.6Z" transform="translate(-151.523 -103.65)" fill="#3498db" opacity="0.2"/><path d="M1061.284,694.8H994V656.89h67.284Zm-64.441-2.843h61.6V659.733h-61.6Z" transform="translate(-151.523 -101.557)" fill="#3498db" opacity="0.2"/><path d="M990.284,694.8H923V656.89h67.284Zm-64.441-2.843h61.6V659.733h-61.6Z" transform="translate(-147.808 -101.557)" fill="#3498db" opacity="0.2"/><path d="M190.284,734.8H123V696.89h67.284Zm-64.441-2.843h61.6V699.733h-61.6Z" transform="translate(-105.942 -103.65)" fill="#3498db" opacity="0.2"/><path d="M261.284,734.8H194V696.89h67.284Zm-64.441-2.843h61.6V699.733h-61.6Z" transform="translate(-109.658 -103.65)" fill="#3498db" opacity="0.2"/><path d="M332.284,734.8H265V696.89h67.284Zm-64.441-2.843h61.6V699.733h-61.6Z" transform="translate(-113.373 -103.65)" fill="#3498db" opacity="0.2"/><path d="M403.284,736.8H336V698.89h67.284Zm-64.441-2.843h61.6V701.733h-61.6Z" transform="translate(-117.089 -103.755)" fill="#3498db" opacity="0.2"/><path d="M332.284,694.8H265V656.89h67.284Zm-64.441-2.843h61.6V659.733h-61.6Z" transform="translate(-113.373 -101.557)" fill="#3498db" opacity="0.2"/><path d="M261.284,694.8H194V656.89h67.284Zm-64.441-2.843h61.6V659.733h-61.6Z" transform="translate(-109.658 -101.557)" fill="#3498db" opacity="0.2"/><path d="M995.009,605.795S982.557,563.5,997.34,532.37a66.8,66.8,0,0,0,5.4-41.906,112.333,112.333,0,0,0-5.932-19.674" transform="translate(-151.32 -91.818)" fill="none" stroke="#535461" stroke-miterlimit="10" stroke-width="2"/><path d="M1005.864,449.482c0,5.184-9.382,20.214-9.382,20.214s-9.382-15.03-9.382-20.214a9.387,9.387,0,1,1,18.773,0Z" transform="translate(-151.162 -90.211)" fill="#3498db"/><path d="M1022.228,479.53c-2.843,4.35-18.868,11.865-18.868,11.865s.294-17.721,3.108-22.071a9.385,9.385,0,0,1,15.76,10.2Z" transform="translate(-152.013 -91.516)" fill="#3498db"/><path d="M1021.32,531.129c-4.625,2.331-22.27.72-22.27.72s9.192-15.163,13.826-17.484a9.387,9.387,0,1,1,8.453,16.764Z" transform="translate(-151.788 -94.045)" fill="#3498db"/><path d="M1011.986,570.225c-4.17,3.08-21.8,4.473-21.8,4.473s6.5-16.48,10.671-19.569a9.384,9.384,0,0,1,11.164,15.087Z" transform="translate(-151.324 -96.135)" fill="#3498db"/><path d="M982.413,493.028c3.715,3.611,21.038,7.354,21.038,7.354s-4.245-17.21-7.96-20.849A9.386,9.386,0,0,0,982.413,493Z" transform="translate(-150.768 -92.136)" fill="#3498db"/><path d="M971.914,538.739c4.625,2.331,22.27.72,22.27.72s-9.192-15.163-13.827-17.484a9.387,9.387,0,1,0-8.453,16.764Z" transform="translate(-150.097 -94.443)" fill="#3498db"/><path d="M968.019,584.7c4.17,3.08,21.8,4.473,21.8,4.473s-6.463-16.442-10.642-19.56A9.384,9.384,0,0,0,968.01,584.7Z" transform="translate(-149.964 -96.893)" fill="#3498db"/><path d="M1005.864,449.482c0,5.184-9.382,20.214-9.382,20.214s-9.382-15.03-9.382-20.214a9.387,9.387,0,1,1,18.773,0Z" transform="translate(-151.162 -90.211)" opacity="0.25"/><path d="M1022.228,479.53c-2.843,4.35-18.868,11.865-18.868,11.865s.294-17.721,3.108-22.071a9.385,9.385,0,0,1,15.76,10.2Z" transform="translate(-152.013 -91.516)" opacity="0.25"/><path d="M1021.32,531.129c-4.625,2.331-22.27.72-22.27.72s9.192-15.163,13.826-17.484a9.387,9.387,0,1,1,8.453,16.764Z" transform="translate(-151.788 -94.045)" opacity="0.25"/><path d="M1011.986,570.225c-4.17,3.08-21.8,4.473-21.8,4.473s6.5-16.48,10.671-19.569a9.384,9.384,0,0,1,11.164,15.087Z" transform="translate(-151.324 -96.135)" opacity="0.25"/><path d="M982.413,493.028c3.715,3.611,21.038,7.354,21.038,7.354s-4.245-17.21-7.96-20.849A9.386,9.386,0,0,0,982.413,493Z" transform="translate(-150.768 -92.136)" opacity="0.25"/><path d="M971.914,538.739c4.625,2.331,22.27.72,22.27.72s-9.192-15.163-13.827-17.484a9.387,9.387,0,1,0-8.453,16.764Z" transform="translate(-150.097 -94.443)" opacity="0.25"/><path d="M968.019,584.7c4.17,3.08,21.8,4.473,21.8,4.473s-6.463-16.442-10.642-19.56A9.384,9.384,0,0,0,968.01,584.7Z" transform="translate(-149.964 -96.893)" opacity="0.25"/><path d="M273.525,606.023s-12.642-42.92,2.369-74.477a67.8,67.8,0,0,0,5.487-42.531A114.017,114.017,0,0,0,275.354,469" transform="translate(-113.559 -91.724)" fill="none" stroke="#535461" stroke-miterlimit="10" stroke-width="2"/><path d="M284.538,447.474c0,5.26-9.524,20.517-9.524,20.517s-9.534-15.3-9.534-20.517a9.524,9.524,0,0,1,19.048,0Z" transform="translate(-113.398 -90.099)" fill="#3498db"/><path d="M301.143,477.888C298.3,482.3,282,489.933,282,489.933s.294-18.006,3.156-22.393a9.523,9.523,0,1,1,15.989,10.35Z" transform="translate(-114.263 -91.42)" fill="#3498db"/><path d="M300.222,530.244c-4.738,2.369-22.6.73-22.6.73s9.334-15.371,14.025-17.74a9.525,9.525,0,1,1,8.576,17.01Z" transform="translate(-114.034 -93.985)" fill="#3498db"/><path d="M290.776,569.918c-4.227,3.127-22.156,4.539-22.156,4.539s6.634-16.726,10.832-19.9a9.537,9.537,0,1,1,11.372,15.314Z" transform="translate(-113.563 -96.103)" fill="#3498db"/><path d="M260.731,491.577c3.791,3.667,21.351,7.458,21.351,7.458s-4.3-17.456-8.074-21.124a9.524,9.524,0,1,0-13.268,13.666Z" transform="translate(-112.999 -92.05)" fill="#3498db"/><path d="M250.081,538c4.738,2.369,22.6.73,22.6.73s-9.335-15.371-14.025-17.74A9.525,9.525,0,1,0,250.081,538Z" transform="translate(-112.318 -94.391)" fill="#3498db"/><path d="M246.125,584.608c4.227,3.127,22.156,4.539,22.156,4.539s-6.634-16.726-10.832-19.9a9.537,9.537,0,0,0-11.372,15.314Z" transform="translate(-112.181 -96.872)" fill="#3498db"/><path d="M284.538,447.474c0,5.26-9.524,20.517-9.524,20.517s-9.534-15.3-9.534-20.517a9.524,9.524,0,0,1,19.048,0Z" transform="translate(-113.398 -90.099)" fill="#fff" opacity="0.5"/><path d="M301.143,477.888C298.3,482.3,282,489.933,282,489.933s.294-18.006,3.156-22.393a9.523,9.523,0,1,1,15.989,10.35Z" transform="translate(-114.263 -91.42)" fill="#fff" opacity="0.5"/><path d="M300.222,530.244c-4.738,2.369-22.6.73-22.6.73s9.334-15.371,14.025-17.74a9.525,9.525,0,1,1,8.576,17.01Z" transform="translate(-114.034 -93.985)" fill="#fff" opacity="0.5"/><path d="M290.776,569.918c-4.227,3.127-22.156,4.539-22.156,4.539s6.634-16.726,10.832-19.9a9.537,9.537,0,1,1,11.372,15.314Z" transform="translate(-113.563 -96.103)" fill="#fff" opacity="0.5"/><path d="M260.731,491.577c3.791,3.667,21.351,7.458,21.351,7.458s-4.3-17.456-8.074-21.124a9.524,9.524,0,1,0-13.268,13.666Z" transform="translate(-112.999 -92.05)" fill="#fff" opacity="0.5"/><path d="M250.081,538c4.738,2.369,22.6.73,22.6.73s-9.335-15.371-14.025-17.74A9.525,9.525,0,1,0,250.081,538Z" transform="translate(-112.318 -94.391)" fill="#fff" opacity="0.5"/><path d="M246.125,584.608c4.227,3.127,22.156,4.539,22.156,4.539s-6.634-16.726-10.832-19.9a9.537,9.537,0,0,0-11.372,15.314Z" transform="translate(-112.181 -96.872)" fill="#fff" opacity="0.5"/><path d="M197.481,606.7s-9.628-32.666,1.81-56.784a51.667,51.667,0,0,0,4.179-32.41,86.885,86.885,0,0,0-4.587-15.21" transform="translate(-109.641 -93.467)" fill="none" stroke="#535461" stroke-miterlimit="10" stroke-width="2"/><path d="M205.878,485.839c0,4.009-7.259,15.637-7.259,15.637s-7.259-11.628-7.259-15.637a7.259,7.259,0,0,1,14.518,0Z" transform="translate(-109.519 -92.225)" fill="#3498db"/><path d="M218.534,509.052c-2.18,3.364-14.594,9.183-14.594,9.183s.227-13.7,2.407-17.058a7.26,7.26,0,1,1,12.187,7.894Z" transform="translate(-110.178 -93.234)" fill="#3498db"/><path d="M217.839,548.951c-3.582,1.8-17.229.559-17.229.559s7.108-11.713,10.69-13.523a7.26,7.26,0,1,1,6.539,12.964Z" transform="translate(-110.003 -95.189)" fill="#3498db"/><path d="M210.617,579.2c-3.222,2.388-16.887,3.459-16.887,3.459s5.032-12.746,8.254-15.163a7.26,7.26,0,0,1,8.633,11.675Z" transform="translate(-109.643 -96.804)" fill="#3498db"/><path d="M187.738,519.491c2.843,2.8,16.271,5.686,16.271,5.686s-3.279-13.267-6.16-16.11a7.261,7.261,0,1,0-10.112,10.424Z" transform="translate(-109.214 -93.714)" fill="#3498db"/><path d="M179.62,554.851c3.582,1.8,17.229.559,17.229.559s-7.108-11.713-10.69-13.523a7.26,7.26,0,0,0-6.539,12.964Z" transform="translate(-108.696 -95.498)" fill="#3498db"/><path d="M176.607,590.385c3.222,2.388,16.887,3.459,16.887,3.459s-5.032-12.746-8.254-15.163a7.26,7.26,0,0,0-8.633,11.675Z" transform="translate(-108.593 -97.389)" fill="#3498db"/><path d="M205.878,485.839c0,4.009-7.259,15.637-7.259,15.637s-7.259-11.628-7.259-15.637a7.259,7.259,0,0,1,14.518,0Z" transform="translate(-109.519 -92.225)" opacity="0.25"/><path d="M218.534,509.052c-2.18,3.364-14.594,9.183-14.594,9.183s.227-13.7,2.407-17.058a7.26,7.26,0,1,1,12.187,7.894Z" transform="translate(-110.178 -93.234)" opacity="0.25"/><path d="M217.839,548.951c-3.582,1.8-17.229.559-17.229.559s7.108-11.713,10.69-13.523a7.26,7.26,0,1,1,6.539,12.964Z" transform="translate(-110.003 -95.189)" opacity="0.25"/><path d="M210.617,579.2c-3.222,2.388-16.887,3.459-16.887,3.459s5.032-12.746,8.254-15.163a7.26,7.26,0,0,1,8.633,11.675Z" transform="translate(-109.643 -96.804)" opacity="0.25"/><path d="M187.738,519.491c2.843,2.8,16.271,5.686,16.271,5.686s-3.279-13.267-6.16-16.11a7.261,7.261,0,1,0-10.112,10.424Z" transform="translate(-109.214 -93.714)" opacity="0.25"/><path d="M179.62,554.851c3.582,1.8,17.229.559,17.229.559s-7.108-11.713-10.69-13.523a7.26,7.26,0,0,0-6.539,12.964Z" transform="translate(-108.696 -95.498)" opacity="0.25"/><path d="M176.607,590.385c3.222,2.388,16.887,3.459,16.887,3.459s-5.032-12.746-8.254-15.163a7.26,7.26,0,0,0-8.633,11.675Z" transform="translate(-108.593 -97.389)" opacity="0.25"/><g transform="translate(0 75.813)" opacity="0.7"><rect width="938.191" height="478.572" fill="#3498db" opacity="0.6"/><path d="M105,150.89V630.41h938.191V150.89Zm41.7,41.7H553.247V369.8H146.7Zm0,218.911H553.247V588.712H146.7Zm854.8,177.214H594.944V411.5h406.549Zm0-218.911H594.944V192.587h406.549Z" transform="translate(-105 -150.89)" opacity="0.25"/></g><g transform="translate(209.141 157.09)" opacity="0.7"><path d="M462.955,677.2s-82.106-30.022-93.345,12.234l31.491,80.05,3.374,51.174h68.6V777.263s-10.121-43.365,15.75-70.042Z" transform="translate(-327.988 -259.168)" fill="url(#a)"/><g transform="translate(76.717 178.544)" opacity="0.1"><path d="M478.644,426.32c-3.487-1.156-7.686-2.189-10.529.114-1.649,1.336-2.36,3.487-3.639,5.174-4.255,5.582-12.831,4.539-19.607,6.539-9.96,2.938-16.11,12.8-19.636,22.469-15.6,42.645,1.791,91.421-11.789,134.73-4,12.746-10.538,26.895-4.075,38.618,2.151,3.914,5.686,7.174,6.728,11.5,1.459,5.866-1.355,13.561,3.563,17.134a14.574,14.574,0,0,0,5.316,1.9c11.069,2.919,19.456,11.533,27.89,19.19s18.574,15.068,30.013,14.566a48.865,48.865,0,0,0,10.879-2.161l56.765-15.807c5.686-1.583,11.865-3.5,15.163-8.349,2.019-2.966,2.654-6.634,3.165-10.159a267.638,267.638,0,0,0,2.777-40.683c0-4.492-.208-9.088-1.9-13.267-1.9-4.824-5.686-8.681-8.444-13.087-5.326-8.529-6.757-18.773-8.074-28.7-2.094-15.8-4.189-31.908-1.289-47.582,1.241-6.728,3.383-13.267,4.8-19.948a94.634,94.634,0,0,0,1.08-33.1c-1.327-9.145-4.17-18.423-10.424-25.3a26.449,26.449,0,0,0-15.731-8.529c-7.676-.948-11.5,3.469-18.337,5.117C503.2,439.218,488.377,429.533,478.644,426.32Z" transform="translate(-406.643 -425.058)" fill="url(#b)"/></g><path d="M478.644,423.93c-3.487-1.156-7.686-2.189-10.529.114-1.649,1.336-2.36,3.487-3.639,5.174-4.255,5.582-12.831,4.539-19.607,6.539-9.96,2.938-16.11,12.8-19.636,22.469-15.6,42.645,1.791,91.422-11.789,134.73-4,12.746-10.538,26.895-4.075,38.617,2.151,3.914,5.686,7.174,6.728,11.5,1.459,5.866-1.355,13.561,3.563,17.134a14.573,14.573,0,0,0,5.316,1.9c11.069,2.919,19.456,11.533,27.89,19.19s18.555,15.153,30.013,14.623a48.872,48.872,0,0,0,10.879-2.161l56.765-15.807c5.686-1.583,11.865-3.5,15.163-8.349,2.019-2.966,2.654-6.634,3.165-10.159a267.639,267.639,0,0,0,2.777-40.683c0-4.492-.208-9.088-1.9-13.267-1.9-4.824-5.686-8.681-8.444-13.087-5.326-8.529-6.757-18.773-8.074-28.7-2.094-15.8-4.189-31.908-1.289-47.582,1.241-6.728,3.383-13.267,4.8-19.948a94.634,94.634,0,0,0,1.08-33.1c-1.327-9.145-4.17-18.423-10.424-25.3a26.45,26.45,0,0,0-15.731-8.529c-7.676-.948-11.5,3.468-18.337,5.117C503.2,436.819,488.377,427.19,478.644,423.93Z" transform="translate(-329.926 -246.389)" fill="url(#b)"/><path d="M464.933,335.174s1.128,42.247-12.367,41.138,38.2,70.042,38.2,70.042L534.624,423s-25.852-41.129-7.847-66.706S464.933,335.174,464.933,335.174Z" transform="translate(-332.212 -241.795)" fill="url(#d)"/><g transform="translate(6.568 160.767)" opacity="0.1"><path d="M383.415,698.03s-8.993,61.153-31.491,44.474S332.8,698.03,332.8,698.03s43.867-117.852,41.622-135.649S449.287,406.3,449.287,406.3L477.85,633.541S392.408,664.672,383.415,698.03Z" transform="translate(-332.62 -406.3)" fill="url(#e)"/></g><path d="M381.045,698.03s-8.993,61.153-31.491,44.474S330.43,698.03,330.43,698.03,374.3,580.178,372.042,562.381,446.908,406.3,446.908,406.3l28.563,227.241S390.038,664.672,381.045,698.03Z" transform="translate(-325.929 -245.533)" fill="url(#e)"/><path d="M460.657,363.35s-43.868,29.994-60.755,28.9L386.8,395.817a71.937,71.937,0,0,0-51.913,55.41l-.208,1.061c-6.728,35.585-8.984,133.432-8.984,133.432s1.128,25.587,12.367,32.221l72.023,48.919s-2.246-53.363,24.744-58.926-6.747-2.227-6.747-2.227l-49.487-28.9s1.128-43.365,14.622-57.808,60.736-90.028,60.736-90.028l-13.495-46.692Z" transform="translate(-325.69 -243.285)" fill="url(#g)"/><g transform="translate(176.793 148.969)" opacity="0.1"><path d="M518.779,393.85s27.625,7.231,46.967,10.766a19.465,19.465,0,0,1,14.063,10.614c5.838,12.045,14.736,33.832,13.2,52l16.869,65.6,48.331,57.808-43.849,20.024-49.468-54.481,40.484,103.4-75.359,3.336s-22.5-166.79-16.868-194.566Z" transform="translate(-512.246 -393.85)" fill="url(#h)"/></g><path d="M521.15,393.85s27.625,7.231,46.966,10.766a19.465,19.465,0,0,1,14.064,10.614c5.838,12.045,14.736,33.832,13.2,52l16.868,65.6,48.331,57.808-43.858,20.015-49.487-54.481,40.522,103.409L532.4,662.912s-22.5-166.79-16.868-194.566Z" transform="translate(-335.577 -244.881)" fill="url(#e)"/><path d="M357.9,288.72l15.5,75.254-25.3,12.784L334.24,308.972Z" transform="translate(-226.632 -172.199)" fill="url(#g)"/><path d="M404.05,371.329l11.808-48.369,15.191,28.354-7.875,23.351Z" transform="translate(-230.286 -173.991)" fill="url(#g)"/><path d="M554.15,460.14s0,75.6,10.121,81.158" transform="translate(-337.646 -248.35)" opacity="0.1" fill="url(#g)"/><path d="M400.061,480.08s-23.341,74.458-16.736,82.258" transform="translate(-328.645 -249.394)" opacity="0.1" fill="url(#m)"/><path d="M396.31,588s45,29.084,51.174,29.548" transform="translate(-329.386 -255.041)" opacity="0.1" fill="url(#n)"/><g transform="translate(133.403 97.528)" opacity="0.1"><path d="M466.9,339.864s.171,6.51-.436,14.348a51.761,51.761,0,0,0,47.668,31.273,52.659,52.659,0,0,0,8.292-.663c-.294-8.32,1.308-16.669,6.33-23.8C546.746,335.419,466.9,339.864,466.9,339.864Z" transform="translate(-466.46 -339.569)" fill="url(#o)"/></g><ellipse cx="51.733" cy="51.146" rx="51.733" ry="51.146" transform="translate(128.219 36.68)" fill="url(#g)"/><g transform="translate(104.671 1.114)" opacity="0.1"><path d="M544.25,303.039c6.264.834,14.215-1.232,15.456-7.373,1.526-7.752-8.965-12.794-10.585-20.536-.607-2.9.114-5.932-.237-8.88-.7-5.932-5.553-10.5-10.491-13.95a81.376,81.376,0,0,0-53.657-14.139c-2.35.218-4.824.6-6.634,2.085-2.066,1.677-2.843,4.407-4.274,6.634-4.852,7.752-15.75,8.662-23.568,13.495-9.145,5.686-13.675,16.745-14.082,27.4s2.663,21.1,5.686,31.339c2.587,8.7,5.3,17.636,10.974,24.763s15.1,12.1,24.014,9.96c-4.084-2.909-1.118-9.666,3.307-12.035s9.922-2.777,13.7-6.046,4.918-8.624,6.15-13.495c1.554-6.141,3.791-12.377,8.339-16.859C517.27,296.623,533.333,301.589,544.25,303.039Z" transform="translate(-436.141 -237.83)" fill="url(#q)"/></g><path d="M543.032,301.869c6.264.834,14.215-1.232,15.456-7.373,1.526-7.752-8.965-12.793-10.585-20.536-.606-2.9.114-5.932-.237-8.88-.7-5.932-5.553-10.5-10.491-13.95a81.376,81.376,0,0,0-53.619-14.149c-2.35.218-4.824.6-6.634,2.085-2.066,1.677-2.843,4.407-4.274,6.634-4.852,7.752-15.75,8.662-23.568,13.495-9.145,5.686-13.675,16.745-14.082,27.4s2.663,21.1,5.686,31.339c2.587,8.7,5.3,17.636,10.974,24.763s15.1,12.1,24.014,9.96c-4.084-2.909-1.118-9.666,3.307-12.035s9.922-2.777,13.7-6.046,4.918-8.624,6.15-13.495c1.554-6.141,3.791-12.377,8.339-16.859C516.08,295.453,532.143,300.409,543.032,301.869Z" transform="translate(-331.408 -236.655)" fill="url(#r)"/><g transform="translate(154.65 90.611)" opacity="0.1"><path d="M505.237,336.383c-.758,5.288-2.445,14.442-5.62,20.223A161.726,161.726,0,0,0,488.88,380.07h0s20.716,15.854,31.273,26.686a24.564,24.564,0,0,0,25.8,6.245c5.487-1.971,10.292-5.781,11.571-12.926a42.027,42.027,0,0,0-2.635-24.8,18.432,18.432,0,0,1-.076-15.163c.777-1.706,1.687-3.042,2.7-3.374,0,0-20.242-4.445-21.37,1.109s-16.869,11.116-20.242,1.109l-.948-22.062a4.852,4.852,0,0,0-4.871-4.625h0a4.852,4.852,0,0,0-4.843,4.113Z" transform="translate(-488.88 -332.27)" fill="url(#s)"/></g><path d="M505.237,337.563c-.758,5.288-2.445,14.442-5.62,20.223A161.732,161.732,0,0,0,488.88,381.25h0S509.6,397.1,520.153,407.937a24.564,24.564,0,0,0,25.8,6.245c5.487-1.971,10.292-5.781,11.571-12.926a42.027,42.027,0,0,0-2.635-24.8,18.432,18.432,0,0,1-.076-15.163c.777-1.706,1.687-3.042,2.7-3.374,0,0-20.242-4.445-21.37,1.109s-16.869,11.116-20.242,1.109l-.948-22.062a4.852,4.852,0,0,0-4.871-4.625h0A4.852,4.852,0,0,0,505.237,337.563Z" transform="translate(-334.23 -241.72)" fill="url(#t)"/></g><path d="M464.321,676.445S385.5,647.3,374.71,688.32l30.231,77.709,3.213,49.724h65.863V773.629s-9.714-42.1,15.163-68.024Z" transform="translate(-119.114 -102.054)" fill="#535461"/><path d="M479.384,432.822c-3.345-1.118-7.382-2.123-10.1.114-1.583,1.3-2.265,3.383-3.5,5.023-4.084,5.421-12.32,4.407-18.821,6.349-9.562,2.843-15.456,12.433-18.849,21.8-14.973,41.4,1.715,88.787-11.315,130.835-3.791,12.376-10.112,26.118-3.914,37.5,2.066,3.791,5.43,6.965,6.463,11.164,1.4,5.686-1.3,13.173,3.421,16.641,1.469,1.08,3.336,1.412,5.1,1.9,10.623,2.843,18.679,11.2,26.772,18.641s17.835,14.632,28.809,14.149a46.43,46.43,0,0,0,10.424-2.094l54.491-15.352c5.468-1.545,11.372-3.4,14.566-8.112,1.9-2.843,2.549-6.425,3.042-9.865A262.877,262.877,0,0,0,568.635,622c0-4.359-.2-8.823-1.8-12.879-1.9-4.681-5.459-8.425-8.112-12.718-5.108-8.264-6.492-18.233-7.752-27.871-2.009-15.343-4.018-30.989-1.241-46.208,1.194-6.529,3.25-12.879,4.615-19.37a92.948,92.948,0,0,0,1.042-32.145c-1.27-8.88-4.009-17.892-10-24.573a25.312,25.312,0,0,0-15.106-8.283c-7.373-.948-11.04,3.374-17.608,4.975C502.962,445.3,488.728,435.95,479.384,432.822Z" transform="translate(-120.976 -89.767)" opacity="0.1"/><path d="M479.384,430.542c-3.345-1.118-7.382-2.123-10.1.114-1.583,1.3-2.265,3.383-3.5,5.023-4.084,5.421-12.32,4.407-18.821,6.349-9.562,2.843-15.456,12.433-18.849,21.8-14.973,41.4,1.715,88.787-11.315,130.835-3.791,12.376-10.112,26.118-3.914,37.5,2.066,3.791,5.43,6.965,6.463,11.164,1.4,5.686-1.3,13.173,3.421,16.641,1.469,1.08,3.336,1.412,5.1,1.9,10.623,2.843,18.679,11.2,26.772,18.641s17.835,14.632,28.809,14.149a46.423,46.423,0,0,0,10.424-2.094l54.5-15.343c5.468-1.545,11.372-3.4,14.566-8.112,1.9-2.843,2.549-6.425,3.042-9.865a262.892,262.892,0,0,0,2.663-39.508c0-4.359-.2-8.823-1.8-12.879-1.9-4.681-5.459-8.425-8.112-12.718-5.108-8.264-6.491-18.233-7.752-27.871-2.009-15.343-4.018-30.989-1.241-46.208,1.194-6.529,3.25-12.879,4.615-19.37a92.948,92.948,0,0,0,1.042-32.145c-1.27-8.88-4.009-17.892-10-24.573a25.312,25.312,0,0,0-15.078-8.311c-7.373-.948-11.04,3.374-17.608,4.975C502.962,443.033,488.728,433.67,479.384,430.542Z" transform="translate(-120.976 -89.647)" fill="#e0e0e0"/><path d="M466.225,344.314s1.08,41.025-11.874,39.944,36.713,68.024,36.713,68.024l42.1-22.678s-24.829-39.944-7.581-64.783S466.225,344.314,466.225,344.314Z" transform="translate(-123.169 -85.184)" fill="#fda57d"/><path d="M387.967,696.685s-8.633,59.381-30.231,43.185-18.356-43.185-18.356-43.185,42.1-114.45,39.944-131.726S451.234,413.38,451.234,413.38L478.65,634.054S396.6,664.294,387.967,696.685Z" transform="translate(-117.257 -88.813)" opacity="0.1"/><path d="M385.687,696.685s-8.633,59.381-30.231,43.185S337.1,696.685,337.1,696.685s42.1-114.45,39.944-131.726S448.954,413.38,448.954,413.38L476.37,634.054S394.321,664.294,385.687,696.685Z" transform="translate(-117.137 -88.813)" fill="#4d8af0"/><path d="M462.116,371.67s-42.1,29.15-58.3,28.07L391.23,403.2a69.54,69.54,0,0,0-49.838,53.809l-.2,1.033c-6.482,34.552-8.633,129.565-8.633,129.565s1.08,24.829,11.874,31.273l69.094,47.554s-2.161-51.828,23.758-57.22-6.482-2.161-6.482-2.161L383.3,578.972s1.08-42.1,14.035-56.14,58.3-87.451,58.3-87.451l-12.955-45.393Z" transform="translate(-116.909 -86.63)" fill="#4d8af0"/><path d="M517.914,401.3s26.535,7.022,45.09,10.424A18.707,18.707,0,0,1,576.5,422.035c5.6,11.7,14.139,32.846,12.67,50.492l16.2,63.7,46.436,56.14-42.114,19.465-47.478-52.9,38.854,100.453-72.345,3.184s-21.6-161.956-16.2-188.946Z" transform="translate(-126.281 -88.181)" opacity="0.1"/><path d="M520.194,401.3s26.535,7.022,45.09,10.424a18.706,18.706,0,0,1,13.495,10.311c5.6,11.7,14.139,32.846,12.67,50.492l16.2,63.7,46.436,56.14-42.1,19.437L564.469,558.9,603.323,659.35l-72.335,3.222s-21.6-161.956-16.2-188.946Z" transform="translate(-126.4 -88.181)" fill="#4d8af0"/><path d="M359.276,297.16l14.888,73.075-24.3,12.414L336.56,316.824Z" transform="translate(-17.613 -15.551)" fill="#e0e0e0"/><path d="M403.58,377.376l11.334-46.966,14.575,27.53-7.553,22.678Z" transform="translate(-21.12 -17.291)" fill="#e0e0e0"/><path d="M551.87,465.67s0,73.416,9.714,78.818" transform="translate(-128.386 -91.55)" opacity="0.1"/><path d="M403.949,485s-22.412,72.307-16.11,79.879" transform="translate(-119.743 -92.561)" opacity="0.1"/><path d="M400.34,589.85s43.195,28.24,49.127,28.7" transform="translate(-120.456 -98.048)" opacity="0.1"/><path d="M468.107,348.874s.171,6.321-.417,13.931a49.677,49.677,0,0,0,53.723,29.69c-.284-8.084,1.26-16.186,6.074-23.114C544.745,344.553,468.107,348.874,468.107,348.874Z" transform="translate(-123.98 -85.422)" opacity="0.1"/><circle cx="49.667" cy="49.667" r="49.667" transform="translate(338.725 204.071)" fill="#fda57d"/><path d="M542.359,313.117c6.018.806,13.684-1.2,14.84-7.155,1.469-7.534-8.6-12.424-10.159-19.9-.588-2.843.114-5.762-.227-8.614-.673-5.762-5.335-10.2-10.074-13.542a77.453,77.453,0,0,0-51.506-13.722c-2.255.218-4.634.578-6.378,2.019-1.981,1.63-2.748,4.274-4.1,6.463-4.663,7.524-15.163,8.415-22.621,13.106-8.785,5.487-13.125,16.262-13.523,26.61s2.559,20.5,5.478,30.43c2.483,8.453,5.089,17.124,10.538,24.042s14.5,11.751,23.047,9.666c-3.923-2.843-1.071-9.391,3.175-11.685s9.477-2.691,13.163-5.876,4.738-8.377,5.9-13.106c1.5-5.97,3.658-12.016,8.008-16.376C516.468,306.853,531.849,311.7,542.359,313.117Z" transform="translate(-122.457 -80.256)" opacity="0.1"/><path d="M541.267,311.974c6.018.806,13.684-1.2,14.84-7.155,1.469-7.534-8.6-12.424-10.159-19.9-.588-2.843.114-5.762-.227-8.614-.72-5.809-5.4-10.263-10.14-13.59A77.453,77.453,0,0,0,484.1,248.982c-2.255.218-4.634.578-6.378,2.019-1.981,1.63-2.748,4.274-4.1,6.463-4.663,7.525-15.163,8.415-22.621,13.106-8.785,5.487-13.125,16.262-13.523,26.61s2.559,20.5,5.478,30.43c2.483,8.453,5.089,17.124,10.538,24.042s14.5,11.751,23.047,9.666c-3.923-2.843-1.071-9.391,3.175-11.685s9.477-2.691,13.163-5.876,4.738-8.377,5.9-13.106c1.5-5.97,3.658-12.016,8.008-16.376C515.329,305.738,530.747,310.581,541.267,311.974Z" transform="translate(-122.397 -80.193)" fill="#72351c"/><path d="M504.912,345.488c-.73,5.136-2.35,14.025-5.4,19.636A157.932,157.932,0,0,0,489.2,387.868h0s19.9,15.4,29.994,25.919a23.388,23.388,0,0,0,24.762,6.065c5.269-1.9,9.884-5.62,11.107-12.547,1.9-10.946-.36-19.2-2.521-24.09a18.091,18.091,0,0,1-.038-14.708c.749-1.658,1.62-2.947,2.6-3.279,0,0-19.437-4.321-20.517,1.08s-16.2,10.794-19.437,1.08l-.891-21.427a4.681,4.681,0,0,0-4.681-4.492h0A4.672,4.672,0,0,0,504.912,345.488Z" transform="translate(-125.106 -85.05)" opacity="0.1"/><path d="M504.912,346.63c-.73,5.136-2.35,14.025-5.4,19.636A157.938,157.938,0,0,0,489.2,389.01h0s19.9,15.4,29.994,25.919a23.388,23.388,0,0,0,24.762,6.065c5.269-1.9,9.884-5.62,11.107-12.547,1.9-10.946-.36-19.2-2.521-24.09a18.091,18.091,0,0,1-.066-14.746c.749-1.658,1.62-2.947,2.6-3.279,0,0-19.437-4.321-20.517,1.08s-16.167,10.841-19.437,1.156l-.891-21.427a4.681,4.681,0,0,0-4.681-4.492h0A4.672,4.672,0,0,0,504.912,346.63Z" transform="translate(-125.106 -85.112)" fill="#72351c"/><path d="M897.575,650s-19.512-19.531-26.686-45.488h1.677l-.805-2.255h.805l-2.54-7.221c7.193-7.07,12.509-13.921,13.372-17.816,1.459-6.558,2.909-42.039,3.791-66.7l.777.19c1.9-3.241,2.293-7.325,2.161-11.031a42.769,42.769,0,0,0-1.592-12.32l-3.516-35.206a24.014,24.014,0,0,0-9.24-16.537l-35.632-27.644a22.659,22.659,0,0,1,6.994-6.2c2.038-1.08,4.407-1.82,5.781-3.667,2.483-3.345.37-8.33,2.066-12.14,1.27-2.843,4.4-4.435,6.226-6.984,3.743-5.222,1.033-12.433-1.763-18.214l-16.243-33.576c-4.5-9.3-9.041-18.669-15.333-26.857-19.266-25.094-56.339-37.575-86.56-26.7-8.615,3.1-16.547,9.05-20.223,17.428-1.279,2.919-2.047,6.1-3.9,8.69-4.141,5.771-12.225,6.861-18.006,11.012-7.382,5.335-10.121,15.381-9.088,24.431s5.184,17.409,9.278,25.587c4.3,8.529,8.747,17.314,15.807,23.777,3.3,3.023,7.335,5.828,8.387,10.178.9,3.734-.692,7.581-.36,11.448a11.646,11.646,0,0,0,1.384,4.587c-15.949,2-27.264,15.248-32.334,34.959-.313,1.223-.436,1.9-.436,1.9l-2.246,20.413c-.047.881,0,1.734,0,2.578a26.846,26.846,0,0,0,2.843,13.267v71.672l-68.232,43.195c-10.235,4.549-7.96,40.93,12.509,47.743S675.366,610.2,675.366,610.2c12.462-.834,33.424-17.456,44.692-30.325A20.534,20.534,0,0,0,726,586.06C717.868,604.388,701.787,642.3,704.355,650c1.545,4.644,41.479,5.07,84.646,4.16a20.623,20.623,0,0,0,3.459,1.526c4.606,1.535,9.1.531,13.267-1.943C852.428,652.406,897.575,650,897.575,650ZM839.947,511.023c.948-2.625,4.056-4.056,8.216-4.738v27.643Zm-3.971-97.136h0l.133-.2Z" transform="translate(-131.859 -81.294)" fill="url(#u)"/><path d="M733.884,487.472s-2.161,76.657-4.321,86.38S696.11,612.669,679.9,613.8c0,0-17.276,41.024-36.713,34.552s-21.6-41.025-11.874-45.346l64.8-41.034V479.91Z" transform="translate(-132.248 -92.295)" fill="#fdb797"/><path d="M736.765,587s-28.07,60.461-24.829,70.184,183.544,0,183.544,0S862.008,623.713,868.49,587Z" transform="translate(-136.749 -97.899)" fill="#3ad29f"/><path d="M760.706,397.525s4.321,42.1-3.241,51.828,30.231,15.163,33.472,15.163,37.793-11.874,44.266-15.163,11.874-26.99,11.874-26.99-32.391,6.482-42.1-31.273Z" transform="translate(-139.093 -87.647)" fill="#fdb797"/><path d="M746.3,283.693c-8.178,2.947-15.722,8.6-19.209,16.556-1.213,2.767-1.943,5.79-3.705,8.254-3.933,5.478-11.609,6.51-17.058,10.424-7.013,5.07-9.609,14.6-8.633,23.208s4.919,16.537,8.8,24.27c4.084,8.122,8.311,16.442,15.011,22.583,3.127,2.843,6.965,5.534,7.96,9.666.853,3.544-.654,7.25-.341,10.879.777,8.974,11.5,13.154,20.46,14.149,3.895.436,8.349.455,11.1-2.341,1.4-1.44,2.113-3.393,2.995-5.193a24.9,24.9,0,0,1,44.408-.455c2.1,4.037,3.326,8.946,7.145,11.372,5.847,3.791,13.675-.654,18.006-6.131s7.439-12.32,13.589-15.608c1.9-1.033,4.189-1.725,5.5-3.487,2.36-3.175.351-7.913,1.962-11.524,1.213-2.72,4.179-4.208,5.913-6.634,3.554-4.956.948-11.808-1.677-17.295L843.1,334.5c-4.274-8.832-8.586-17.731-14.556-25.511C810.206,285.219,775,273.363,746.3,283.693Z" transform="translate(-136.007 -81.83)" fill="#3498db"/><path d="M785.669,458.394s42.1,0,52.908-38.854l35.443,27.482a22.8,22.8,0,0,1,8.719,15.76l3.345,33.434s3.791,12.414-.54,19.977c0,0-44.806-11.372-45.886,1.621l31.273,87.451s-48.587,1.08-61.542-7.581c0,0-52.908,10.794-65.863-1.08s-25.909-10.794-15.163-37.793c0,0-21.6-21.6-11.874-51.828s.54.54.54.54-20.972-10.254-19.891-29.738l2.161-19.437s.114-.644.417-1.8c6.586-25.587,24.27-39.8,49.136-30.742,7.269,2.635,14.7-.389,14.7-.389S755.438,460.555,785.669,458.394Z" transform="translate(-135.986 -89.136)" opacity="0.1"/><path d="M785.669,456.114s42.1,0,52.908-38.854l35.443,27.482a22.8,22.8,0,0,1,8.719,15.76l3.345,33.434s3.791,12.414-.54,19.977c0,0-44.806-11.372-45.886,1.62l31.273,87.451s-48.587,1.08-61.542-7.581c0,0-52.908,10.794-65.863-1.08s-25.909-10.794-15.163-37.793c0,0-21.6-21.6-11.874-51.828s.54.54.54.54-20.972-10.254-19.891-29.69l2.161-19.437s.114-.644.417-1.8c6.586-25.587,24.27-39.8,49.136-30.742,7.269,2.635,14.7-.389,14.7-.389S755.438,458.275,785.669,456.114Z" transform="translate(-135.986 -89.016)" fill="#252a62"/><path d="M889.974,496.581s-2.161,76.657-4.321,86.38-33.472,38.854-49.667,39.944c0,0-17.276,41.025-36.713,34.552s-21.6-41.025-11.874-45.346l64.783-41.025V489Z" transform="translate(-140.416 -92.771)" fill="#fdb797"/><path d="M847,498.988s24.829,16.85,46.436,15.447c0,0,2.161-28.942-4.321-30.562S854.515,483.872,847,498.988Z" transform="translate(-143.831 -92.476)" opacity="0.1"/><path d="M847,497.847s24.829,16.85,46.436,15.447c0,0,2.161-28.942-4.321-30.562S854.515,482.732,847,497.847Z" transform="translate(-143.831 -92.416)" fill="#252a62"/><path d="M807.486,393.32,763.22,399.8s1,9.742,1.194,20.934a49.686,49.686,0,0,0,52.122-8.472C812.8,407.706,809.608,401.546,807.486,393.32Z" transform="translate(-139.446 -87.763)" opacity="0.1"/><circle cx="49.667" cy="49.667" r="49.667" transform="translate(592.463 235.382)" fill="#fdb797"/><path d="M793.183,358.465a15.514,15.514,0,0,1-6.634.948q-13.172-.085-26.336-.948c-6.634-.445-13.741-1.232-18.868-5.487-6.9-5.686-7.989-16.461-4.426-24.687S747.752,314,755.428,309.338a55.229,55.229,0,0,1,13.95-6.292c14.215-3.867,29.984.881,41.29,10.358S829.185,336.564,833,350.817c1.317,4.928,3.014,10.8,7.894,12.32-3.25,5.4-11.182,6.264-16.868,3.554-8.4-3.99-12.7-19.266-20.233-21.673C795.391,342.317,800.281,355.205,793.183,358.465Z" transform="translate(-137.966 -82.969)" opacity="0.1"/><path d="M793.183,357.326a15.514,15.514,0,0,1-6.634.948q-13.172-.085-26.336-.948c-6.634-.445-13.741-1.232-18.868-5.487-6.9-5.686-7.989-16.461-4.426-24.687s10.832-14.291,18.508-18.953a55.226,55.226,0,0,1,13.94-6.274c14.215-3.867,29.984.881,41.29,10.358s18.517,23.161,22.337,37.414c1.317,4.928,3.013,10.8,7.894,12.32-3.25,5.4-11.182,6.264-16.868,3.554-8.4-3.99-12.7-19.266-20.233-21.673C795.391,341.178,800.281,354.047,793.183,357.326Z" transform="translate(-137.966 -82.91)" fill="#3498db"/><path d="M729.61,563.292a191.267,191.267,0,0,1,49.648-6.482" transform="translate(-137.687 -96.319)" opacity="0.1"/><path d="M846.3,502.13s-16.2,11.874-11.874,18.356" transform="translate(-143.134 -93.458)" opacity="0.1"/><g transform="translate(284.206 526.354)" opacity="0.7"><path d="M830.035,555.42H299.9v46.36h30.856V747.607H800.278V601.78h29.757Z" transform="translate(-299.9 -555.42)" fill="url(#v)"/></g><rect width="459.951" height="165.197" transform="translate(319.838 553.353)" fill="#e0e0e0"/><rect width="459.951" height="25.909" transform="translate(319.838 561.986)" opacity="0.1"/><rect width="519.331" height="44.266" transform="translate(289.607 534.996)" fill="#e0e0e0"/><rect width="99.335" height="14.035" rx="6.5" transform="translate(364.037 524.098)" fill="#535461"/><g transform="translate(424.498 367.61)" opacity="0.7"><rect width="246.886" height="170.703" rx="28.22" fill="url(#v)"/></g><rect width="233.875" height="167.548" rx="26.84" transform="translate(428.895 370.756)" fill="#3e3f49"/><rect width="233.875" height="167.548" rx="26.84" transform="translate(432.136 370.756)" fill="#535461"/><circle cx="7.562" cy="7.562" r="7.562" transform="translate(552.433 445.821)" fill="#e0e0e0"/><path d="M369.58,658.21s6.387,9.372,25.331,12.244" transform="translate(-118.846 -101.626)" opacity="0.1"/><path d="M544.284,148.8H477V110.89h67.284Zm-64.441-2.843h61.6V113.733h-61.6Z" transform="translate(-124.468 -72.983)" fill="#3498db" opacity="0.2"/><path d="M615.284,148.8H548V110.89h67.284Zm-64.441-2.843h61.6V113.733h-61.6Z" transform="translate(-128.183 -72.983)" fill="#3498db" opacity="0.2"/><path d="M686.284,148.8H619V110.89h67.284Zm-64.441-2.843h61.6V113.733h-61.6Z" transform="translate(-131.899 -72.983)" fill="#3498db" opacity="0.2"/><path d="M757.284,148.8H690V110.89h67.284Zm-64.441-2.843h61.6V113.733h-61.6Z" transform="translate(-135.614 -72.983)" fill="#3498db" opacity="0.2"/><path d="M686.284,108.8H619V70.89h67.284Zm-64.441-2.843h61.6V73.733h-61.6Z" transform="translate(-131.899 -70.89)" fill="#3498db" opacity="0.2"/><path d="M615.284,108.8H548V70.89h67.284Zm-64.441-2.843h61.6V73.733h-61.6Z" transform="translate(-128.183 -70.89)" fill="#3498db" opacity="0.2"/><path d="M281.284,148.8H214V110.89h67.284Zm-64.441-2.843h61.6V113.733h-61.6Z" transform="translate(-110.704 -72.983)" fill="#3498db" opacity="0.2"/><path d="M352.284,148.8H285V110.89h67.284Zm-64.441-2.843h61.6V113.733h-61.6Z" transform="translate(-114.42 -72.983)" fill="#3498db" opacity="0.2"/><path d="M352.284,108.8H285V70.89h67.284Zm-64.441-2.843h61.6V73.733h-61.6Z" transform="translate(-114.42 -70.89)" fill="#3498db" opacity="0.2"/><path d="M901.284,148.8H834V110.89h67.284Zm-64.442-2.843h61.6V113.733h-61.6Z" transform="translate(-143.15 -72.983)" fill="#3498db" opacity="0.2"/><path d="M972.284,148.8H905V110.89h67.284Zm-64.441-2.843h61.6V113.733h-61.6Z" transform="translate(-146.866 -72.983)" fill="#3498db" opacity="0.2"/><path d="M972.284,108.8H905V70.89h67.284Zm-64.441-2.843h61.6V73.733h-61.6Z" transform="translate(-146.866 -70.89)" fill="#3498db" opacity="0.2"/></svg>